<svg width="800" height="600" viewBox="0 0 800 600" xmlns="http://www.w3.org/2000/svg" style="background-color:#F7F7F7;">
  <defs>
    <style>
      @import url('https://fonts.googleapis.com/css2?family=Poppins:wght@600;700&amp;family=Noto+Sans+SC:wght@500&amp;display=swap');
    </style>
    <linearGradient id="grad1" x1="0%" y1="0%" x2="100%" y2="100%">
      <stop offset="0%" style="stop-color:#FF8C00;stop-opacity:1" />
      <stop offset="100%" style="stop-color:#FF4500;stop-opacity:1" />
    </linearGradient>
  </defs>
  <g transform="translate(0, -30)">
    <!-- Map Pin / Music Note Icon -->
    <g id="icon" transform="translate(400, 230) scale(1.8)">
      <path d="M0-70c-27.6,0-50,22.4-50,50,0,27.6,50,90,50,90s50-62.4,50-90C50-47.6,27.6-70,0-70z M0-45c11,0,20,9,20,20s-9,20-20,20s-20-9-20-20S-11-45,0-45z" fill="url(#grad1)"/>
      <path d="M-10, -35 v30 l20-5 v-30 z" fill="#FFFFFF"/>
      <circle cx="-15" cy="-5" r="5" fill="#FFFFFF"/>
      <circle cx="15" cy="-10" r="5" fill="#FFFFFF"/>
    </g>
    <!-- Text: "SongQuest" -->
    <text x="400" y="440" font-family="'Poppins', sans-serif" font-size="72" font-weight="700" fill="#1C1C1E" text-anchor="middle">
      SongQuest
    </text>
    <!-- Text: "声启" -->
    <text x="400" y="520" font-family="'Noto Sans SC', sans-serif" font-size="48" font-weight="500" fill="#333333" text-anchor="middle">
      声启
    </text>
  </g>
</svg>